<svg xmlns="http://www.w3.org/2000/svg" id="export" class="canvas" preserveAspectRatio="xMidYMid meet" style="" width="311" height="63"><rect id="background" fill="#fff" pointer-events="all" width="311" height="63"/><g id="origin" transform="translate(2.8223751068115237, 2.8223751068115237) scale(1)"><g id="clusters" class="clusters"/><g id="edge-paths" class="edge-paths"><defs><marker id="arrowhead" viewBox="0 0 10 10" refX="9" refY="5" markerUnits="strokeWidth" markerWidth="8" markerHeight="6" orient="auto" style="fill: rgb(0, 0, 0);"><path d="M 0 0 L 10 5 L 0 10 L 4 5 z" style="stroke-width: 1px;"/></marker><marker id="arrowhead-select" viewBox="0 0 10 10" refX="9" refY="5" markerUnits="strokeWidth" markerWidth="8" markerHeight="6" orient="auto" style="fill: rgb(238, 0, 0);"><path d="M 0 0 L 10 5 L 0 10 L 4 5 z" style="stroke-width: 1px;"/></marker><marker id="arrowhead-hover" viewBox="0 0 10 10" refX="9" refY="5" markerUnits="strokeWidth" markerWidth="8" markerHeight="6" orient="auto"><path d="M 0 0 L 10 5 L 0 10 L 4 5 z" style="stroke-width: 1px;"/></marker></defs></g><g id="edge-labels" class="edge-labels"/><g id="nodes" class="nodes"><g id="node-name-fc1" class="node graph-node" style="" transform="translate(219.8080062866211,0)"><g class="node-item node-item-type" transform="translate(0,0)"><path d="M5,0h74.8280029296875a5,5 0 0 1 5,5v15.34749984741211a0,0 0 0 1 0,0h-84.8280029296875a0,0 0 0 1 0,0v-15.34749984741211a5,5 0 0 1 5,-5z" style="stroke: rgb(0, 0, 0); fill: rgb(0, 0, 0); stroke-width: 0px;"/><text x="6" y="14.257499694824219" style="font-family: -apple-system, BlinkMacSystemFont, &quot;Segoe WPC&quot;, &quot;Segoe UI&quot;, &quot;Ubuntu&quot;, &quot;Droid Sans&quot;, sans-serif, &quot;PingFang SC&quot;; font-size: 11px; text-rendering: geometricprecision; user-select: none; fill: rgb(255, 255, 255);">fc1</text><title>?</title></g><g class="node-attribute-list" transform="translate(0,20.34749984741211)"><path d="M0,0h84.8280029296875a0,0 0 0 1 0,0v31.100000381469727a5,5 0 0 1 -5,5h-74.8280029296875a5,5 0 0 1 -5,-5v-31.100000381469727a0,0 0 0 1 0,0z" style="stroke: rgb(0, 0, 0); fill: rgb(255, 255, 255); stroke-width: 0px;"/><g class="node-attribute"><text xml:space="preserve" x="6" y="14.440000534057617" style="font-family: -apple-system, BlinkMacSystemFont, &quot;Segoe WPC&quot;, &quot;Segoe UI&quot;, &quot;Ubuntu&quot;, &quot;Droid Sans&quot;, sans-serif, &quot;PingFang SC&quot;; font-size: 9px; font-weight: normal; text-rendering: geometricprecision; user-select: none;"><title>float32[256,8]</title><tspan style="font-weight: bold;">weight</tspan><tspan>〈256×8〉</tspan></text></g><g class="node-attribute"><text xml:space="preserve" x="6" y="29.49000072479248" style="font-family: -apple-system, BlinkMacSystemFont, &quot;Segoe WPC&quot;, &quot;Segoe UI&quot;, &quot;Ubuntu&quot;, &quot;Droid Sans&quot;, sans-serif, &quot;PingFang SC&quot;; font-size: 9px; font-weight: normal; text-rendering: geometricprecision; user-select: none;"><title>float32[256]</title><tspan style="font-weight: bold;">bias</tspan><tspan>〈256〉</tspan></text></g><line class="node" x1="0" x2="84.8280029296875" y1="0" y2="0" style="stroke: rgb(51, 51, 51); fill: none; stroke-width: 1px;"/></g><path class="node node-border" d="M5,0h74.8280029296875a5,5 0 0 1 5,5v46.447500228881836a5,5 0 0 1 -5,5h-74.8280029296875a5,5 0 0 1 -5,-5v-46.447500228881836a5,5 0 0 1 5,-5z" style="stroke: rgb(51, 51, 51); fill: none; stroke-width: 1px;"/></g><g id="node-name-fc2" class="node graph-node" style="" transform="translate(104.8280029296875,0)"><g class="node-item node-item-type" transform="translate(0,0)"><path d="M5,0h84.9800033569336a5,5 0 0 1 5,5v15.34749984741211a0,0 0 0 1 0,0h-94.9800033569336a0,0 0 0 1 0,0v-15.34749984741211a5,5 0 0 1 5,-5z" style="stroke: rgb(0, 0, 0); fill: rgb(0, 0, 0); stroke-width: 0px;"/><text x="6" y="14.257499694824219" style="font-family: -apple-system, BlinkMacSystemFont, &quot;Segoe WPC&quot;, &quot;Segoe UI&quot;, &quot;Ubuntu&quot;, &quot;Droid Sans&quot;, sans-serif, &quot;PingFang SC&quot;; font-size: 11px; text-rendering: geometricprecision; user-select: none; fill: rgb(255, 255, 255);">fc2</text><title>?</title></g><g class="node-attribute-list" transform="translate(0,20.34749984741211)"><path d="M0,0h94.9800033569336a0,0 0 0 1 0,0v31.100000381469727a5,5 0 0 1 -5,5h-84.9800033569336a5,5 0 0 1 -5,-5v-31.100000381469727a0,0 0 0 1 0,0z" style="stroke: rgb(0, 0, 0); fill: rgb(255, 255, 255); stroke-width: 0px;"/><g class="node-attribute"><text xml:space="preserve" x="6" y="14.440000534057617" style="font-family: -apple-system, BlinkMacSystemFont, &quot;Segoe WPC&quot;, &quot;Segoe UI&quot;, &quot;Ubuntu&quot;, &quot;Droid Sans&quot;, sans-serif, &quot;PingFang SC&quot;; font-size: 9px; font-weight: normal; text-rendering: geometricprecision; user-select: none;"><title>float32[256,256]</title><tspan style="font-weight: bold;">weight</tspan><tspan>〈256×256〉</tspan></text></g><g class="node-attribute"><text xml:space="preserve" x="6" y="29.49000072479248" style="font-family: -apple-system, BlinkMacSystemFont, &quot;Segoe WPC&quot;, &quot;Segoe UI&quot;, &quot;Ubuntu&quot;, &quot;Droid Sans&quot;, sans-serif, &quot;PingFang SC&quot;; font-size: 9px; font-weight: normal; text-rendering: geometricprecision; user-select: none;"><title>float32[256]</title><tspan style="font-weight: bold;">bias</tspan><tspan>〈256〉</tspan></text></g><line class="node" x1="0" x2="94.9800033569336" y1="0" y2="0" style="stroke: rgb(51, 51, 51); fill: none; stroke-width: 1px;"/></g><path class="node node-border" d="M5,0h84.9800033569336a5,5 0 0 1 5,5v46.447500228881836a5,5 0 0 1 -5,5h-84.9800033569336a5,5 0 0 1 -5,-5v-46.447500228881836a5,5 0 0 1 5,-5z" style="stroke: rgb(51, 51, 51); fill: none; stroke-width: 1px;"/></g><g id="node-name-fc3" class="node graph-node" style="" transform="translate(0,0)"><g class="node-item node-item-type" transform="translate(0,0)"><path d="M5,0h74.8280029296875a5,5 0 0 1 5,5v15.34749984741211a0,0 0 0 1 0,0h-84.8280029296875a0,0 0 0 1 0,0v-15.34749984741211a5,5 0 0 1 5,-5z" style="stroke: rgb(0, 0, 0); fill: rgb(0, 0, 0); stroke-width: 0px;"/><text x="6" y="14.257499694824219" style="font-family: -apple-system, BlinkMacSystemFont, &quot;Segoe WPC&quot;, &quot;Segoe UI&quot;, &quot;Ubuntu&quot;, &quot;Droid Sans&quot;, sans-serif, &quot;PingFang SC&quot;; font-size: 11px; text-rendering: geometricprecision; user-select: none; fill: rgb(255, 255, 255);">fc3</text><title>?</title></g><g class="node-attribute-list" transform="translate(0,20.34749984741211)"><path d="M0,0h84.8280029296875a0,0 0 0 1 0,0v31.100000381469727a5,5 0 0 1 -5,5h-74.8280029296875a5,5 0 0 1 -5,-5v-31.100000381469727a0,0 0 0 1 0,0z" style="stroke: rgb(0, 0, 0); fill: rgb(255, 255, 255); stroke-width: 0px;"/><g class="node-attribute"><text xml:space="preserve" x="6" y="14.440000534057617" style="font-family: -apple-system, BlinkMacSystemFont, &quot;Segoe WPC&quot;, &quot;Segoe UI&quot;, &quot;Ubuntu&quot;, &quot;Droid Sans&quot;, sans-serif, &quot;PingFang SC&quot;; font-size: 9px; font-weight: normal; text-rendering: geometricprecision; user-select: none;"><title>float32[4,256]</title><tspan style="font-weight: bold;">weight</tspan><tspan>〈4×256〉</tspan></text></g><g class="node-attribute"><text xml:space="preserve" x="6" y="29.49000072479248" style="font-family: -apple-system, BlinkMacSystemFont, &quot;Segoe WPC&quot;, &quot;Segoe UI&quot;, &quot;Ubuntu&quot;, &quot;Droid Sans&quot;, sans-serif, &quot;PingFang SC&quot;; font-size: 9px; font-weight: normal; text-rendering: geometricprecision; user-select: none;"><title>float32[4]</title><tspan style="font-weight: bold;">bias</tspan><tspan>〈4〉</tspan></text></g><line class="node" x1="0" x2="84.8280029296875" y1="0" y2="0" style="stroke: rgb(51, 51, 51); fill: none; stroke-width: 1px;"/></g><path class="node node-border" d="M5,0h74.8280029296875a5,5 0 0 1 5,5v46.447500228881836a5,5 0 0 1 -5,5h-74.8280029296875a5,5 0 0 1 -5,-5v-46.447500228881836a5,5 0 0 1 5,-5z" style="stroke: rgb(51, 51, 51); fill: none; stroke-width: 1px;"/></g></g></g></svg>