<svg viewBox="0 0 1129 400" xmlns="http://www.w3.org/2000/svg"><g><g><g><g><g><line x1="41.149001121520996" y1="376.8999996185303" x2="36.149001121520996" y2="376.8999996185303" style="visibility: inherit;" fill="rgb(0, 0, 0)" stroke="rgb(204, 204, 204)" stroke-width="1px"></line><line x1="41.149001121520996" y1="347.9076919555664" x2="36.149001121520996" y2="347.9076919555664" style="visibility: inherit;" fill="rgb(0, 0, 0)" stroke="rgb(204, 204, 204)" stroke-width="1px"></line><line x1="41.149001121520996" y1="318.91538429260254" x2="36.149001121520996" y2="318.91538429260254" style="visibility: inherit;" fill="rgb(0, 0, 0)" stroke="rgb(204, 204, 204)" stroke-width="1px"></line><line x1="41.149001121520996" y1="289.9230766296387" x2="36.149001121520996" y2="289.9230766296387" style="visibility: inherit;" fill="rgb(0, 0, 0)" stroke="rgb(204, 204, 204)" stroke-width="1px"></line><line x1="41.149001121520996" y1="260.9307689666748" x2="36.149001121520996" y2="260.9307689666748" style="visibility: inherit;" fill="rgb(0, 0, 0)" stroke="rgb(204, 204, 204)" stroke-width="1px"></line><line x1="41.149001121520996" y1="231.93846130371094" x2="36.149001121520996" y2="231.93846130371094" style="visibility: inherit;" fill="rgb(0, 0, 0)" stroke="rgb(204, 204, 204)" stroke-width="1px"></line><line x1="41.149001121520996" y1="202.94615364074707" x2="36.149001121520996" y2="202.94615364074707" style="visibility: inherit;" fill="rgb(0, 0, 0)" stroke="rgb(204, 204, 204)" stroke-width="1px"></line><line x1="41.149001121520996" y1="173.9538459777832" x2="36.149001121520996" y2="173.9538459777832" style="visibility: inherit;" fill="rgb(0, 0, 0)" stroke="rgb(204, 204, 204)" stroke-width="1px"></line><line x1="41.149001121520996" y1="144.96153831481934" x2="36.149001121520996" y2="144.96153831481934" style="visibility: inherit;" fill="rgb(0, 0, 0)" stroke="rgb(204, 204, 204)" stroke-width="1px"></line><line x1="41.149001121520996" y1="115.96923065185547" x2="36.149001121520996" y2="115.96923065185547" style="visibility: inherit;" fill="rgb(0, 0, 0)" stroke="rgb(204, 204, 204)" stroke-width="1px"></line><line x1="41.149001121520996" y1="86.97692298889159" x2="36.149001121520996" y2="86.97692298889159" style="visibility: inherit;" fill="rgb(0, 0, 0)" stroke="rgb(204, 204, 204)" stroke-width="1px"></line><line x1="41.149001121520996" y1="57.984615325927734" x2="36.149001121520996" y2="57.984615325927734" style="visibility: inherit;" fill="rgb(0, 0, 0)" stroke="rgb(204, 204, 204)" stroke-width="1px"></line><line x1="41.149001121520996" y1="28.99230766296385" x2="36.149001121520996" y2="28.99230766296385" style="visibility: inherit;" fill="rgb(0, 0, 0)" stroke="rgb(204, 204, 204)" stroke-width="1px"></line><line x1="41.149001121520996" y1="0" x2="36.149001121520996" y2="0" style="visibility: inherit;" fill="rgb(0, 0, 0)" stroke="rgb(204, 204, 204)" stroke-width="1px"></line></g><g transform="translate(31.149001121520996, 0)"><text style="text-anchor: end; visibility: hidden; font-family: Roboto, sans-serif; font-size: 12px; font-weight: 200;" x="0" y="376.8999996185303" dx="0em" dy="0.3em" fill="rgb(255, 255, 255)" stroke="none" stroke-width="1px">0</text><text style="text-anchor: end; visibility: inherit; font-family: Roboto, sans-serif; font-size: 12px; font-weight: 200;" x="0" y="347.9076919555664" dx="0em" dy="0.3em" fill="rgb(255, 255, 255)" stroke="none" stroke-width="1px">20</text><text style="text-anchor: end; visibility: inherit; font-family: Roboto, sans-serif; font-size: 12px; font-weight: 200;" x="0" y="318.91538429260254" dx="0em" dy="0.3em" fill="rgb(255, 255, 255)" stroke="none" stroke-width="1px">40</text><text style="text-anchor: end; visibility: inherit; font-family: Roboto, sans-serif; font-size: 12px; font-weight: 200;" x="0" y="289.9230766296387" dx="0em" dy="0.3em" fill="rgb(255, 255, 255)" stroke="none" stroke-width="1px">60</text><text style="text-anchor: end; visibility: inherit; font-family: Roboto, sans-serif; font-size: 12px; font-weight: 200;" x="0" y="260.9307689666748" dx="0em" dy="0.3em" fill="rgb(255, 255, 255)" stroke="none" stroke-width="1px">80</text><text style="text-anchor: end; visibility: inherit; font-family: Roboto, sans-serif; font-size: 12px; font-weight: 200;" x="0" y="231.93846130371094" dx="0em" dy="0.3em" fill="rgb(255, 255, 255)" stroke="none" stroke-width="1px">100</text><text style="text-anchor: end; visibility: inherit; font-family: Roboto, sans-serif; font-size: 12px; font-weight: 200;" x="0" y="202.94615364074707" dx="0em" dy="0.3em" fill="rgb(255, 255, 255)" stroke="none" stroke-width="1px">120</text><text style="text-anchor: end; visibility: inherit; font-family: Roboto, sans-serif; font-size: 12px; font-weight: 200;" x="0" y="173.9538459777832" dx="0em" dy="0.3em" fill="rgb(255, 255, 255)" stroke="none" stroke-width="1px">140</text><text style="text-anchor: end; visibility: inherit; font-family: Roboto, sans-serif; font-size: 12px; font-weight: 200;" x="0" y="144.96153831481934" dx="0em" dy="0.3em" fill="rgb(255, 255, 255)" stroke="none" stroke-width="1px">160</text><text style="text-anchor: end; visibility: inherit; font-family: Roboto, sans-serif; font-size: 12px; font-weight: 200;" x="0" y="115.96923065185547" dx="0em" dy="0.3em" fill="rgb(255, 255, 255)" stroke="none" stroke-width="1px">180</text><text style="text-anchor: end; visibility: inherit; font-family: Roboto, sans-serif; font-size: 12px; font-weight: 200;" x="0" y="86.97692298889159" dx="0em" dy="0.3em" fill="rgb(255, 255, 255)" stroke="none" stroke-width="1px">200</text><text style="text-anchor: end; visibility: inherit; font-family: Roboto, sans-serif; font-size: 12px; font-weight: 200;" x="0" y="57.984615325927734" dx="0em" dy="0.3em" fill="rgb(255, 255, 255)" stroke="none" stroke-width="1px">220</text><text style="text-anchor: end; visibility: inherit; font-family: Roboto, sans-serif; font-size: 12px; font-weight: 200;" x="0" y="28.99230766296385" dx="0em" dy="0.3em" fill="rgb(255, 255, 255)" stroke="none" stroke-width="1px">240</text><text style="text-anchor: end; visibility: hidden; font-family: Roboto, sans-serif; font-size: 12px; font-weight: 200;" x="0" y="0" dx="0em" dy="0.3em" fill="rgb(255, 255, 255)" stroke="none" stroke-width="1px">260</text></g><line x1="41.149001121520996" y1="0" x2="41.149001121520996" y2="376.8999996185303" fill="rgb(0, 0, 0)" stroke="rgb(204, 204, 204)" stroke-width="1px"></line></g></g><g transform="translate(41, 0)" clip-path="url(#clip_0)"><clipPath id="clip_0"><rect width="1087" height="376"></rect></clipPath><g><g><g><line x1="1.7174310620098447" y1="0" x2="1.7174310620098447" y2="376.8999996185303" fill="rgb(0, 0, 0)" stroke="rgb(189, 189, 189)" stroke-width="1px" opacity="0.25"></line><line x1="84.35847825201715" y1="0" x2="84.35847825201715" y2="376.8999996185303" fill="rgb(0, 0, 0)" stroke="rgb(189, 189, 189)" stroke-width="1px" opacity="0.25"></line><line x1="166.99952544202444" y1="0" x2="166.99952544202444" y2="376.8999996185303" fill="rgb(0, 0, 0)" stroke="rgb(189, 189, 189)" stroke-width="1px" opacity="0.25"></line><line x1="249.64057263203173" y1="0" x2="249.64057263203173" y2="376.8999996185303" fill="rgb(0, 0, 0)" stroke="rgb(189, 189, 189)" stroke-width="1px" opacity="0.25"></line><line x1="332.28161982203903" y1="0" x2="332.28161982203903" y2="376.8999996185303" fill="rgb(0, 0, 0)" stroke="rgb(189, 189, 189)" stroke-width="1px" opacity="0.25"></line><line x1="414.92266701204636" y1="0" x2="414.92266701204636" y2="376.8999996185303" fill="rgb(0, 0, 0)" stroke="rgb(189, 189, 189)" stroke-width="1px" opacity="0.25"></line><line x1="497.56371420205363" y1="0" x2="497.56371420205363" y2="376.8999996185303" fill="rgb(0, 0, 0)" stroke="rgb(189, 189, 189)" stroke-width="1px" opacity="0.25"></line><line x1="580.204761392061" y1="0" x2="580.204761392061" y2="376.8999996185303" fill="rgb(0, 0, 0)" stroke="rgb(189, 189, 189)" stroke-width="1px" opacity="0.25"></line><line x1="662.8458085820682" y1="0" x2="662.8458085820682" y2="376.8999996185303" fill="rgb(0, 0, 0)" stroke="rgb(189, 189, 189)" stroke-width="1px" opacity="0.25"></line><line x1="745.4868557720755" y1="0" x2="745.4868557720755" y2="376.8999996185303" fill="rgb(0, 0, 0)" stroke="rgb(189, 189, 189)" stroke-width="1px" opacity="0.25"></line><line x1="828.1279029620828" y1="0" x2="828.1279029620828" y2="376.8999996185303" fill="rgb(0, 0, 0)" stroke="rgb(189, 189, 189)" stroke-width="1px" opacity="0.25"></line><line x1="910.7689501520902" y1="0" x2="910.7689501520902" y2="376.8999996185303" fill="rgb(0, 0, 0)" stroke="rgb(189, 189, 189)" stroke-width="1px" opacity="0.25"></line><line x1="993.4099973420974" y1="0" x2="993.4099973420974" y2="376.8999996185303" fill="rgb(0, 0, 0)" stroke="rgb(189, 189, 189)" stroke-width="1px" opacity="0.25"></line><line x1="1076.0510445321047" y1="0" x2="1076.0510445321047" y2="376.8999996185303" fill="rgb(0, 0, 0)" stroke="rgb(189, 189, 189)" stroke-width="1px" opacity="0.25"></line></g><g><line x1="0" y1="376.8999996185303" x2="1087.850998878479" y2="376.8999996185303" fill="rgb(0, 0, 0)" stroke="rgb(189, 189, 189)" stroke-width="1px" opacity="0.25"></line><line x1="0" y1="347.9076919555664" x2="1087.850998878479" y2="347.9076919555664" fill="rgb(0, 0, 0)" stroke="rgb(189, 189, 189)" stroke-width="1px" opacity="0.25"></line><line x1="0" y1="318.91538429260254" x2="1087.850998878479" y2="318.91538429260254" fill="rgb(0, 0, 0)" stroke="rgb(189, 189, 189)" stroke-width="1px" opacity="0.25"></line><line x1="0" y1="289.9230766296387" x2="1087.850998878479" y2="289.9230766296387" fill="rgb(0, 0, 0)" stroke="rgb(189, 189, 189)" stroke-width="1px" opacity="0.25"></line><line x1="0" y1="260.9307689666748" x2="1087.850998878479" y2="260.9307689666748" fill="rgb(0, 0, 0)" stroke="rgb(189, 189, 189)" stroke-width="1px" opacity="0.25"></line><line x1="0" y1="231.93846130371094" x2="1087.850998878479" y2="231.93846130371094" fill="rgb(0, 0, 0)" stroke="rgb(189, 189, 189)" stroke-width="1px" opacity="0.25"></line><line x1="0" y1="202.94615364074707" x2="1087.850998878479" y2="202.94615364074707" fill="rgb(0, 0, 0)" stroke="rgb(189, 189, 189)" stroke-width="1px" opacity="0.25"></line><line x1="0" y1="173.9538459777832" x2="1087.850998878479" y2="173.9538459777832" fill="rgb(0, 0, 0)" stroke="rgb(189, 189, 189)" stroke-width="1px" opacity="0.25"></line><line x1="0" y1="144.96153831481934" x2="1087.850998878479" y2="144.96153831481934" fill="rgb(0, 0, 0)" stroke="rgb(189, 189, 189)" stroke-width="1px" opacity="0.25"></line><line x1="0" y1="115.96923065185547" x2="1087.850998878479" y2="115.96923065185547" fill="rgb(0, 0, 0)" stroke="rgb(189, 189, 189)" stroke-width="1px" opacity="0.25"></line><line x1="0" y1="86.97692298889159" x2="1087.850998878479" y2="86.97692298889159" fill="rgb(0, 0, 0)" stroke="rgb(189, 189, 189)" stroke-width="1px" opacity="0.25"></line><line x1="0" y1="57.984615325927734" x2="1087.850998878479" y2="57.984615325927734" fill="rgb(0, 0, 0)" stroke="rgb(189, 189, 189)" stroke-width="1px" opacity="0.25"></line><line x1="0" y1="28.99230766296385" x2="1087.850998878479" y2="28.99230766296385" fill="rgb(0, 0, 0)" stroke="rgb(189, 189, 189)" stroke-width="1px" opacity="0.25"></line><line x1="0" y1="0" x2="1087.850998878479" y2="0" fill="rgb(0, 0, 0)" stroke="rgb(189, 189, 189)" stroke-width="1px" opacity="0.25"></line></g></g></g><g><g><line x1="0" y1="376.8999996185303" x2="1087.850998878479" y2="376.8999996185303" fill="rgb(0, 0, 0)" stroke="rgb(153, 153, 153)" stroke-width="1.5px"></line></g></g><g><g><line x1="1.7174310620098447" y1="0" x2="1.7174310620098447" y2="376.8999996185303" fill="rgb(0, 0, 0)" stroke="rgb(153, 153, 153)" stroke-width="1.5px"></line></g></g><g><g><g><g><g><path style="fill: none;" stroke="rgb(255, 112, 67)" stroke-width="2px" d="M23.20410333141174,391.18417794615857L27.336155690912108,371.7203220815998L28.16256616281218,352.736075102981L28.988976634712255,375.15705004001927L29.815387106612327,377.8273482091395L32.29461852231255,396.0330353403844L34.773849938012766,353.34699289578333L35.60026040991284,373.10192902591785L37.25308135371298,347.6846982378649L38.079491825613054,307.54065035284003L38.90590229751313,309.9018383733572L39.732312769413205,328.633321719971L41.38513371321335,355.3886554796356L43.03795465701349,336.5865947361135L43.86436512891357,283.81294203863143L46.34359654461379,329.16319688640107L47.17000701651386,286.2717373327385L47.99641748841393,303.2855903548931L48.82282796031401,288.92360159461606L49.64923843221408,301.57088531782426L52.128469847914296,324.6244724890807L52.95488031981437,280.1328199045529L54.607701263614516,301.5302741446758L56.26052220741467,265.9615665179466L57.086932679314735,276.9401756241961L57.913343151214804,274.95731739972035L58.73975362311488,317.7094912467837L59.566164095014955,273.03243405804534L61.218985038815106,272.48584217369205L62.04539551071518,373.8258557442455L62.87180598261524,299.6701010355966L63.69821645451532,303.56718106282716L65.35103739831547,314.5486380386534L67.0038583421156,267.9048310605402L67.83026881401568,282.6131428807224L69.48308975781583,286.62655423277937L70.3095002297159,290.0660949808287L71.96232117351605,293.172164026053L72.78873164541612,300.2872094885759L73.6151421173162,334.96467771372954L74.44155258921627,333.8220294918894L75.26796306111635,304.2902136745291L76.09437353301641,318.2999790315254L77.74719447681656,332.9128070381517L78.57360494871664,478.3566085639534L79.40001542061671,316.02213681733923L80.22642589251677,350.2269748194769L84.35847825201715,271.20490914698746L86.83770966771736,349.2759135672586L88.49053061151751,329.6449015831557L89.31694108341759,454.6897672408729L90.14335155531766,398.460415591646L95.92822485861817,371.0210145736556L98.40745627431839,297.2463981304874L100.06027721811854,334.82713667286134L100.8866876900186,348.67477806820625L101.71309816191868,314.850285490189L105.01874004951897,234.40675133968838L105.84515052141904,335.02598985728673L106.67156099331912,318.6113534783726L107.49797146521918,248.17224690481524L109.15079240901933,218.74418754739307L109.97720288091942,216.51503007835925L112.45643429661963,243.30342953925503L114.93566571231985,274.8508236670823L115.76207618421991,255.30436299526698L117.41489712802006,305.156065563043L119.06771807182021,271.50797776838954L119.89412854372029,336.70648451544986L120.72053901562036,326.49980290012064L121.54694948752042,253.70215710124467L122.37335995942051,321.9539615937803L123.19977043132057,280.5237356251702L124.85259137512072,260.23251558521224L125.6790018470208,249.6544994262971L126.50541231892088,266.7353243871774L128.9846437346211,233.98621777547305L129.81105420652116,267.34471317815843L130.63746467842125,248.05459394731153L132.29028562222138,264.8858791751445L133.11669609412147,251.37906970477343L133.94310656602153,243.21651145380457L135.59592750982168,314.3641347989884L136.42233798172174,275.0120739134072L138.0751589255219,254.73361675302806L138.90156939742195,319.6168283939598L140.55439034122213,261.7024144355593L141.3808008131222,266.3052794915602L142.20721128502225,325.386993715632L143.8600322288224,273.2744974422232L147.16567411642268,325.2804115054925L147.99208458832277,319.5335323562234L148.81849506022286,246.75157472431673L149.64490553212292,322.3379760692875L151.29772647592304,282.19387012090226L152.12413694782313,257.49288717177694L153.77695789162328,245.4284932278766L155.4297788354234,222.9820165519399L156.25618930732352,178.68896277902095L157.08259977922359,207.04839087437867L157.90901025112365,207.90128080893555L159.56183119492377,188.97135348634038L160.3882416668239,205.67765318374L166.17311497012437,231.34976518837283L169.47875685772468,187.50857707485702L171.95798827342486,232.76679873162578L172.78439874532498,207.82601963429624L173.61080921722504,253.89801311030968L174.4372196891251,201.4266189121074L177.7428615767254,165.36256999371838L178.56927204862546,216.98700224995846L179.39568252052553,214.01614894626837L180.22209299242562,250.3206354747468L182.70132440812583,249.67424096879986L183.5277348800259,210.41023731649983L184.35414535192598,107.7853935617968L185.18055582382607,128.99431330609656L186.00696629572613,125.61701648029118L186.8333767676262,193.633255155159L188.48619771142634,164.20913304654968L189.31260818332643,153.69570546366594L190.1390186552265,179.10830189696716L191.79183959902664,111.81844138932355L192.6182500709267,179.29315351679398L193.4446605428268,218.23420322924943L194.27107101472686,257.90299145051324L195.09748148662692,219.4002371606817L195.923891958527,129.4279857792717L198.40312337422722,171.28793038271252L199.22953384612728,106.49329025053883L200.88235478992743,187.21814967646932L204.18799667752774,149.75367886571766L205.0144071494278,186.77244426310207L206.66722809322795,164.0412027488681L207.49363856512804,232.90299878536317L208.3200490370281,263.0525147489934L209.14645950892816,296.63687109341043L209.97286998082825,261.2640858338724L210.7992804527283,225.81857206817293L213.27851186842852,222.8688648873205L215.75774328412876,172.74495575660404L216.58415375602883,174.27984133173885L217.4105642279289,163.43181395788704L218.23697469982898,174.10162552451803L219.88979564362913,149.83841819269583L223.1954375312294,209.5142146000042L224.84825847502955,184.12535225645698L226.5010794188297,195.68755896202563L227.3274898907298,140.75633538891853L228.15390036262986,163.7962970249573L228.98031083452992,134.38931743224677L229.80672130642998,107.02147881459824L231.45954225023016,575.4271002124617L232.28595272213022,489.0373581616965L233.93877366593034,215.3477132231565L235.59159460973052,219.8182269967314L237.24441555353064,244.93646984251973L241.376467913031,127.98206433180749L243.0292888568312,144.79194906398627L243.85569932873125,141.9468444091792L245.50852027253137,210.63526878165578L246.33493074443143,171.72620368596108L247.16134121633155,146.76747471553244L247.9877516882316,112.81591462087673L248.81416216013167,102.8496097873547L249.64057263203173,155.77578940250677L250.4669831039318,107.95047046005783L251.2933935758319,157.3742681817821L252.11980404773198,147.61336386779004L252.94621451963204,115.47526076146751L256.2518564072323,156.13155743568788L257.0782668791324,145.04189800547758L258.7310878229325,162.13159283587447L261.2103192386328,144.12934105590537L264.51596112623304,150.11232241769466L265.3423715981331,198.1274145409865L266.1687820700332,223.62388764562712L266.99519254193325,222.2312407137011L268.64801348573343,226.0895233565621L269.4744239576335,247.60104721538156L270.30083442953355,200.32583713796703L271.12724490143364,167.58625291735223L271.95365537333373,129.97309566547628L272.7800658452338,195.88583704269186L275.259297260934,146.28246317216255L276.08570773283407,153.9671986767513L277.73852867663425,148.7407441907926L281.04417056423455,223.91065428739387L282.69699150803467,140.49599034101118L284.3498124518348,202.08102063193218L285.1762229237349,224.3538933904092L286.002633395635,268.90811062812355L286.82904386753506,129.054831917063L287.6554543394351,133.72651034978773L288.4818648113352,159.63367389661144L289.3082752832353,206.3857939259855L290.1346857551353,170.28618811171617L292.6139171708355,147.54260398603512L294.2667381146357,158.65807672728258L295.0931485865358,165.86943547993724L296.7459695303359,103.1039162457906L298.39879047413604,171.3122838149764L299.2252009460361,199.59805439040795L300.05161141793616,211.35641571660892L300.87802188983625,249.32872526609498L301.70443236173634,199.27097518705995L302.5308428336364,228.45615274341617L303.3572533055365,123.77980328282865L304.1836637774366,117.00132070583642L305.01007424933664,202.4354062041537L305.83648472123673,218.28856159417995L306.66289519313676,146.77543769065963L308.31571613693694,103.06301752076253L309.142126608837,147.06635171530507L310.79494755263715,128.8165398863828L312.44776849643733,136.30713363349642L313.27417896833737,187.68011283072119L314.10058944023746,176.93299404723075L314.9269999121375,171.2976850272433L315.7534103840376,177.7537998278378L317.4062313278377,132.4601982301916L318.2326417997378,179.89736637394236L319.88546274353797,187.34102280655642L320.71187321543806,231.88209007562327L321.5382836873381,180.0969052590037L322.3646941592382,148.65846011447863L323.1911046311382,126.41032787733421L324.8439255749384,222.9026964719233L325.67033604683843,132.0158863374716L326.4967465187385,106.35272162016918L327.3231569906386,201.1059764469872L331.45520935013894,102.16505935892346L332.28161982203903,163.8188145490669L334.76085123773925,204.12556979426807L335.5872617096394,238.00037565644814L337.2400826534395,109.78609106249496L338.06649312533955,113.47454114139401L339.7193140691396,144.2873397540534L341.37213501293985,170.1402444731357L345.5041873724402,82.05998492225045L346.3305978443402,98.026258797833L348.8098292600405,158.2612330140706L349.6362397319406,179.44009252726536L350.4626502038406,90.6109372850464L351.2890606757407,80.2923150408984L352.1154711476408,65.55492730181433L352.9418816195408,67.96295309964191L354.59470256334095,80.66283669744007L356.2475235071411,148.37409342493777L357.9003444509413,100.71407257450339L359.5531653947414,189.53712286912486L362.03239681044164,152.27174855592747L365.33803869804194,99.4517640618462L366.16444916994203,118.88403345840054L366.99085964184206,142.37104978970308L367.81727011374215,127.71196463936941L369.4700910575423,176.06582605588338L370.29650152944237,114.01420966126169L372.7757329451426,183.76575757133975L373.60214341704267,139.96404148314178L375.2549643608428,163.72564774007913L377.734195776543,137.10190490931274L380.2134271922432,125.78600850798975L381.0398376641433,240.30792419173378L381.8662481360434,265.2674715790505L382.6926586079435,240.0665133291288L383.5190690798436,256.92754911681186L385.1718900236437,253.43046481378119L385.99830049554373,140.43591411755185L386.8247109674438,198.9944276967064L387.6511214393439,202.51811054859937L388.47753191124394,180.33557331906488L389.3039423831441,184.27202583442414L390.1303528550441,160.7173684532914L391.7831737988443,165.99772785698588L393.4359947426444,200.41542060814757L394.26240521454446,212.7173434642784L396.74163663024467,204.56824485321192L397.5680471021448,208.17960890900503L400.87368898974506,121.41510934131803L403.3529204054453,116.43384813114972L404.17933087734536,137.7778951394823L405.83215182114554,131.25601943596266L406.6585622930456,181.35529864222337L408.31138323684576,176.98342622303608L409.9642041806459,205.5720110470531L412.4434355963461,209.20986305483166L413.2698460682461,256.37850198179444L418.2283088996466,215.19433747445728L420.7075403153468,292.0963329073111L421.53395078724685,296.15809721389013L422.360361259147,271.32920897678486L423.1867717310471,257.8577905069789L424.0131822029471,193.30137604735938L424.8395926748472,196.29275613137725L425.66600314674724,220.3159571809294L427.3188240905474,202.21191203558482L428.14523456244746,234.2362994332165L428.97164503434755,153.73229091050015L429.7980555062476,137.18186645121457L430.6244659781477,142.10440071982012L431.4508764500478,150.5192304466924L432.27728692194785,166.37667699553714L435.58292880954815,141.08257405600307L436.4093392814482,223.7004317440369L441.36780211284866,185.4626233321862L443.0206230566488,175.65396328680657L443.8470335285489,89.41290767716563L444.6734440004489,150.91204843359012L445.499854472349,74.43612193863373L446.32626494424903,165.51366744675616L447.1526754161492,181.67715767298796L447.97908588804927,258.25287572985036L448.8054963599493,280.29301948054854L449.6319068318494,232.0352999290073L450.4583173037495,194.73318533334822L451.2847277756495,235.95960890729768L452.1111382475496,277.43145801047865L452.93754871944964,204.98781622459936L453.7639591913497,220.48165342170032L454.5903696632498,220.38902853740876L455.4167801351499,157.315209449589L456.24319060705,239.39509074996965L457.8960115508501,211.67834110549956L458.7224220227502,153.27702992698033L459.54883249465024,117.22547845566588L461.20165343845036,172.22745085084026L462.85447438225054,223.31806516199356L464.5072953260507,116.69025593024416L465.33370579795076,121.19066403960896L467.81293721365097,122.66865858133535L468.63934768555106,138.11583495612868L469.4657581574511,113.449302934116L471.11857910125127,73.23815868887904L471.94498957315136,177.70164234075494L472.77140004505145,168.3036063794323L474.4242209888516,196.2369489473611L476.0770419326517,215.18295705583802L476.9034524045518,217.7859762070919L478.5562733483519,306.9387876793229L479.382683820252,183.52423611185804L480.2090942921521,131.11958712878405L481.0355047640522,78.79286470507942L481.86191523595227,94.05565396692836L482.6883257078523,159.31670324779992L483.5147361797524,135.0843524445954L484.3411466516524,190.56883689372484L485.1675571235525,200.04370450533676L486.82037806735264,257.59990070973583L487.6467885392527,194.26109150518462L488.4731990111528,142.8086595116911L490.952430426853,136.74571660799995L491.7788408987531,160.2857530820242L492.60525137065315,203.04680785829186L494.25807231445333,181.60889728064794L495.08448278635336,154.7880265767337L495.91089325825345,98.64263731142563L496.73730373015354,139.7449933090189L498.3901246739537,195.6798282403397L500.04294561775384,111.9514673126978L500.8693560896539,114.78575559295713L501.69576656155397,191.21927924536138L503.3485875053541,112.15242183778173L505.00140844915427,117.14206629120889L506.65422939295445,167.4043431744474L507.4806398648545,134.47644565176304L508.30705033675457,147.45257812834754L510.7862817524548,110.83780100241418L514.0919236400551,179.73786355827033L514.9183341119551,134.64528284383414L515.7447445838552,122.92803037672712L516.5711550557553,144.48322894218146L517.3975655276554,186.6493720586368L519.0503864714555,34.98893667934606L519.8767969433555,71.6848919128257L522.3560283590558,37.93596741578077L523.1824388309559,44.07099736374802L524.835259774756,141.99692267497883L526.4880807185561,94.28892489940334L527.3144911904562,135.47371980893803L529.7937226061565,76.11080196600086L531.4465435499566,120.09341030583748L532.2729540218567,112.36213563550552L533.0993644937568,79.67449876790778L534.7521854375569,15.178226889873605L535.5785959094569,117.11351017762792L536.405006381357,165.57281465645065L537.2314168532571,148.24617707727012L538.0578273251572,169.23100542986649L538.8842377970573,240.48532158206655L539.7106482689574,90.27567391281775L540.5370587408574,175.81870839443727L541.3634692127575,180.3321005771344L544.6691111003578,270.57214017625813L545.4955215722579,145.19255307100832L547.148342516058,206.9344318525589L548.8011634598581,125.11760522356636L549.6275739317582,25.988430131871414L550.4539844036583,129.05949910526252L551.2803948755584,146.6708130452389L552.1068053474584,84.01777083476337L552.9332158193585,131.54045248362962L553.7596262912585,222.99211404678863L554.5860367631586,149.5269110295965L555.4124472350587,157.92855760875827L557.0652681788588,62.679519102773334L557.891678650759,100.79852434960193L558.7180891226591,97.07904078708233L559.5444995945592,155.0840722964611L560.3709100664591,132.7290592376099L562.0237310102593,182.55761940892262L562.8501414821594,57.78255483207612L563.6765519540595,58.67036020062804L565.3293728978596,104.76267032290345L566.1557833697597,127.74302024236529L566.9821938416598,153.50662904314666L567.8086043135598,139.14823468136456L568.6350147854598,189.59808386759835L569.4614252573599,111.73222006419672L570.28783572926,149.59924138700154L571.1142462011601,197.1291007731699L571.9406566730602,142.87028409142513L574.4198880887604,173.23932379574836L576.0727090325606,109.89031755915929L577.7255299763607,173.61798538242002L580.204761392061,174.6914165489361L581.031171863961,99.14669363697469L581.857582335861,250.34241199978206L582.6839928077611,213.77494821772925L583.5104032796612,134.1186426360495L584.3368137515613,91.69113698042057L585.1632242234614,78.27777081122912L585.9896346953614,133.38976497941042L586.8160451672614,145.66128475411824L587.6424556391615,134.72303244820068L588.4688661110616,173.53121107290934L589.2952765829617,220.82127431087358L590.1216870548617,309.92818254940283L592.6009184705621,231.67573842295315L593.4273289424622,189.96387197781442L595.9065603581623,117.86669702778016L596.7329708300624,159.70160249832117L598.3857917738625,349.3224720874552L599.2122022457626,355.54951172458703L600.0386127176627,237.38576669288378L600.8650231895627,126.32799956226953L601.6914336614628,206.0876579252872L602.5178441333628,87.7422091373621L604.9970755490631,151.99521212526162L605.8234860209632,78.78408331306417L606.6498964928631,92.41183046817893L609.9555383804636,79.55476658912083L610.7819488523636,60.045256333833116L612.4347697961638,13.65838248997896L613.2611802680639,31.687354475374732L614.087590739964,17.692757480026927L614.9140012118639,35.489077875457596L616.5668221556641,0.79541273770157L619.0460535713643,-6.329415018571344L619.8724640432644,-1.3904239347030136L621.5252849870645,8.932710662017055L622.3516954589646,50.905928586641664L623.1781059308646,2.660164557478852L624.0045164027648,35.46162773064426L624.8309268746649,30.460392724532014L625.657337346565,12.367186073110481L626.4837478184651,25.023317546460035L627.310158290365,-11.09246859088014L629.7893897060653,-20.96270897724316L630.6158001779654,16.354115003025804L632.2686211217655,7.214167913324477L633.9214420655657,18.25071872331171L634.7478525374657,-10.517099399192356L635.5742630093657,41.52355314306913L636.4006734812658,35.278125392713996L638.053494425066,31.262994259223337L638.8799048969661,-19.736764717666677L639.7063153688661,28.928648100697306L640.5327258407663,21.136213357513753L641.3591363126664,-6.586751831430608L642.1855467845664,4.053729443482018L643.0119572564665,50.22805820956708L643.8383677283666,39.76955303568539L646.3175991440668,104.44052374025925L647.1440096159669,37.26066288624716L649.623241031667,105.42510137598147L650.4496515035671,105.96282339081809L651.2760619754672,59.13188096737284L652.9288829192673,40.88483406036975L654.5817038630674,37.646911418664956L655.4081143349675,53.47137797885806L656.2345248068676,31.419179168592386L657.0609352787677,10.273012092169662L657.8873457506678,151.1761095365568L658.7137562225679,122.30382160425944L659.540166694468,33.14926823121934L660.3665771663681,129.8311335144594L662.0193981101681,221.93562632179314L662.8458085820682,184.90278194199638L663.6722190539683,99.9540287179916L665.3250399977684,296.992451111901L667.8042714134687,357.1632722273095L668.6306818853687,366.35497312549353L669.4570923572687,401.2197661931306L670.2835028291688,312.4042641353484L671.1099133010689,144.57365294862538L672.7627342448691,216.66506580138014L673.5891447167692,193.0673972948731L674.4155551886693,195.6696643873649L676.0683761324694,259.9490336706854L676.8947866043695,265.63302743582534L678.5476075481696,131.6693420838128L681.0268389638699,191.2984223703752L682.6796599076699,122.01286334086328L683.50607037957,225.92355062359925L684.3324808514701,201.08396766851075L686.8117122671703,132.85735161465854L687.6381227390704,140.2594236216086L689.2909436828705,90.18885536455637L690.1173541547706,33.86699772268038L691.7701750985708,43.89167558775951L692.5965855704709,78.55116629059484L693.422996042371,87.59602218565269L695.075816986171,125.02003665888331L695.9022274580711,48.336741019990576L698.3814588737713,166.72485808297205L699.2078693456714,85.8494984271383L700.8606902894716,47.95226203760105L701.6871007613717,23.485091945646865L702.5135112332716,14.660832580986607L703.3399217051717,6.870432820335563L704.9927426489719,11.18198570293461L705.8191531208721,38.85982736615844L706.6455635927722,5.315949478637789L707.4719740646722,53.96196360481697L709.1247950084723,82.46142946553591L710.7776159522725,101.1255593141992L712.4304368960726,98.4363962556323L713.2568473679727,100.29601638032763L714.0832578398728,46.85695480886063L714.9096683117729,31.803105166598108L715.7360787836728,27.833761140088605L719.0417206712732,42.41401283666348L719.8681311431732,67.75031954437145L720.6945416150733,244.02906670740487L721.5209520869734,57.02178103617773L724.0001835026736,120.38408101735403L724.8265939745737,74.82212715792267L725.6530044464738,28.003129197168146L726.4794149183739,48.704940142120165L727.305825390274,8.9744720426839L728.958646334074,36.89246376411757L729.7850568059741,85.30031857586872L730.6114672778742,290.66154303549337L731.4378777497743,481.63288620252064L733.0906986935744,174.56865401572577L734.7435196373746,246.60373987914352L735.5699301092747,192.28950310245125L736.3963405811746,75.0910102847163L737.2227510530747,104.32966143098892L738.0491615249748,136.8971016129173L739.7019824687751,143.77383845522854L740.5283929406751,365.5119657131062L741.3548034125752,340.99913362688767L743.0076243563753,273.1348799449937L743.8340348282754,178.81128292472425L745.4868557720755,146.4603471887531L746.3132662439756,217.2127747141887L749.6189081315758,335.8193648475339L750.4453186034759,288.17647545331056L752.0981395472761,213.8387073171849L752.9245500191761,236.43060782638128L753.7509604910762,190.23485644526662L754.5773709629763,197.47377593961136L755.4037814348765,204.737800924982L756.2301919067766,251.25772281158572L757.0566023786765,237.7785183216554L758.7094233224767,157.591126537745L759.5358337943768,107.24654345881716L760.3622442662769,135.530765677974L762.841475681977,162.9039129457073L763.6678861538771,142.79061010140285L764.4942966257772,78.00795867067062L765.3207070976772,177.66886142648144L766.9735280414774,117.83484512727154L771.9319908728779,116.45203025769004L772.758401344778,201.21558901155004L773.5848118166781,109.71365010821317L774.4112222885781,165.032460435947L775.2376327604782,215.6664423623086L778.5432746480784,212.39216652721078L781.0225060637787,149.90537354189L781.8489165356788,101.79630725241006L783.5017374794788,86.3102671351211L785.980968895179,58.3189718037669L786.8073793670791,38.44241263386794L788.4602003108794,71.61251731667L789.2866107827795,63.62897117043465L790.1130212546796,60.76935620539587L790.9394317265795,58.92050821649755L792.5922526703797,91.26317130608659L793.4186631422798,24.352768682627357L794.2450736141799,75.02836821371604L795.0714840860799,98.62967535746867L795.89789455798,41.46274698022317L796.72430502988,58.862798766200996L797.5507155017801,96.78949816370876L798.3771259736802,72.53759383269205L799.2035364455802,29.876153663327575L800.8563573893804,25.4329904973769L801.6827678612805,16.623551114203288L803.3355888050805,91.35076403248529L804.9884097488808,4.122078313323457L805.8148202207809,59.97288173767736L807.467641164581,51.89738534809878L809.1204621083812,46.98664070655649L809.9468725802813,1.2163444506732048L810.7732830521813,7.062207804647895L811.5996935240813,16.671306845590873L814.0789249397816,101.16917872239571L814.9053354116817,33.12462724707584L815.7317458835817,81.78198861281125L816.5581563554817,16.74956519559053L818.2109772992819,118.42910426551099L819.037387771182,116.20013481116767L820.6902087149821,72.40498817744957L821.5166191868823,101.23571380345822L825.6486715463826,164.71909524531802L826.4750820182827,161.14270192195838L828.1279029620828,162.4532970310116L828.9543134339829,177.49360961555794L830.607134377783,116.93947493234882L831.4335448496831,174.32750858562503L832.2599553215831,66.13472036857273L833.0863657934832,108.6444216230142L834.7391867372834,146.26841736881323L835.5655972091835,69.63601841260824L836.3920076810834,68.79784892234892L838.0448286248837,187.4405157568952L838.8712390967838,199.4342825352927L839.6976495686839,179.7477066803025L840.5240600405839,176.3140275667218L843.0032914562842,62.08112364134288L844.6561124000842,14.832700127481084L848.7881647595846,99.642565793643L849.6145752314847,105.40495062503467L850.4409857033847,84.71780482594184L851.2673961752848,82.95451458090976L852.9202171190849,117.39907131343789L854.5730380628852,127.9352597335601L855.3994485347853,100.7747681404726L856.2258590066854,133.32920212969333L857.8786799504854,149.04986246135377L858.7050904223855,107.95188610008046L859.5315008942856,89.42741798739735L860.3579113661857,128.5995045754171L861.1843218380858,134.76286944321183L863.663553253786,93.74876975327787L864.489963725686,97.5311165805513L865.3163741975861,97.24166243467918L869.4484265570865,145.23880468487187L870.2748370289866,174.63499002241008L871.1012475008866,130.55372926849813L871.9276579727867,129.59693356821953L873.5804789165869,112.74360638284706L874.4068893884869,56.606821554551416L875.233299860387,114.34137734211109L876.0597103322871,163.73712769588747L876.8861208041872,104.31866810143839L881.0181731636875,78.22937361795628L881.8445836355876,15.32175951654063L882.6709941074876,43.461298901512045L883.4974045793876,20.330338155270162L884.3238150512877,36.33759923338219L885.1502255231878,57.13474468610655L886.803046466988,91.41274252222502L887.6294569388881,127.77657533477615L888.4558674107882,68.42555771577898L889.2822778826883,57.25912193371768L890.1086883545884,166.42825937886084L890.9350988264883,134.52707690194657L891.7615092983884,105.52501459445192L892.5879197702885,151.91852425091201L893.4143302421886,106.95693447731755L895.0671511859887,127.42071882409365L895.8935616578888,130.2191958356561L896.7199721297889,116.04125133800554L897.546382601689,111.65320965543506L898.372793073589,150.77420048638888L899.199203545489,222.1349993115393L900.0256140173891,230.8118551588457L903.3312559049895,249.5206993247855L904.9840768487896,143.1631225017263L905.8104873206897,127.48114895755863L908.2897187363899,160.70692810812469L909.9425396801901,80.84644963224707L910.7689501520902,97.5410924188356L912.4217710958902,80.83824334399105L914.0745920396904,164.91951890539346L914.9010025115905,131.92039699407178L915.7274129834905,109.2134867927263L917.3802339272906,129.0715099260793L919.859465342991,127.26269800657029L920.685875814891,111.37881880417845L923.1651072305913,152.6601647871299L924.8179281743913,79.24755058484007L927.2971595900916,144.8529985399611L929.7763910057918,105.26192674400082L930.6028014776919,149.9649410197162L931.429211949592,104.64322569599608L932.255622421492,165.80402848701777L933.082032893392,104.86466276265712L933.9084433652921,113.53129945855036L934.7348538371922,118.6239317236221L935.5612643090923,148.03794527769494L936.3876747809925,81.40288463863253L937.2140852528925,115.93472442630446L938.8669061966926,90.0830362728666L939.6933166685927,160.46748586992618L940.5197271404928,64.86710320583077L942.998958556193,103.30449474149354L943.8253690280931,6.802526338001182L945.4781899718931,82.5787727517847L946.3046004437932,94.32356384120648L947.1310109156933,88.75512169291177L947.9574213875934,71.110341138026L949.6102423313935,101.53963402081135L952.0894737470937,35.87123432343505L952.9158842189939,98.36897639955568L953.7422946908939,127.42425792415015L954.568705162794,61.11209592649393L955.3951156346941,98.74728407622169L956.2215261065942,150.49432403004468L957.0479365784943,59.30425725950045L957.8743470503942,133.43119456944694L958.7007575222943,74.81887560974573L959.5271679941944,78.24574195571768L960.3535784660945,132.79696571994427L961.1799889379946,109.20041424189256L962.0063994098946,110.69329512323168L962.8328098817947,116.77428743721103L964.4856308255949,142.83706078964457L965.3120412974949,117.31280574956035L966.1384517693949,116.27870283242228L966.964862241295,100.10521464853082L975.2289669602958,157.54175609195661L977.7081983759961,60.68713848720798L978.534608847896,113.61141583607967L979.3610193197961,136.2954767226853L980.1874297916962,105.22688965344135L981.8402507354964,104.8763417928436L982.6666612073964,115.79101484463462L983.4930716792965,132.08507574357645L984.3194821511966,240.8521161238612L985.1458926230966,145.22250270523654L986.7987135668969,143.32393036054418L987.6251240387969,197.06209012553737L988.451534510697,190.8423208505919L989.2779449825971,190.83015519414766L990.1043554544972,201.4027742254766L990.9307659263973,133.47645081141962L991.7571763982972,130.66129579084082L992.5835868701973,130.87118654356746L993.4099973420974,174.2678083915467L995.0628182858976,146.82715279023543L996.7156392296977,161.58252358148164L997.5420497015978,101.72227370310283L999.1948706453979,228.19180408856988L1000.0212811172979,221.63937046799984L1000.847691589198,102.66117482872068L1002.5005125329983,208.3714391917558L1003.3269230048984,184.5824049093804L1004.1533334767984,219.0794730389971L1004.9797439486985,159.73843125828424L1005.8061544205985,157.06541534372516L1006.6325648924986,171.09639871152905L1009.9382067800989,207.10117876365914L1011.5910277238991,162.8150151761627L1014.0702591395992,86.38819369449048L1014.8966696114993,83.63972859060159L1016.5494905552994,128.40025324223532L1017.3759010271995,77.1544825726669L1018.2023114990997,60.80881717102602L1019.8551324428998,58.170705630774314L1020.6815429147998,88.84118818241114L1021.5079533866999,123.23776798979816L1022.3343638586,103.34147833708413L1023.1607743305001,113.43224889571866L1023.9871848024002,66.11981190958467L1024.8135952743003,49.330033689602004L1025.6400057462004,31.934826046826483L1026.4664162181004,29.93129726608315L1028.9456476338005,91.4061730677451L1029.7720581057006,170.11458599772598L1030.5984685776007,140.87892096712605L1032.2512895214008,53.628536140742675L1033.077699993301,1.7516775729716685L1033.904110465201,74.61475801398628L1034.7305209371011,47.33212323019835L1035.5569314090012,61.33941674699892L1038.0361628247015,91.5589737126851L1038.8625732966016,118.45210841587833L1039.6889837685014,32.30433021210191L1040.5153942404015,65.32787191381357L1041.3418047123016,14.348529120374591L1042.1682151842017,11.906704917007291L1042.9946256561018,30.868428841672724L1044.647446599902,9.94710521571543L1045.473857071802,62.656183161775715L1046.3002675437021,106.08421452275651L1047.1266780156022,2.48338650965599L1047.953088487502,145.20104691114395L1048.7794989594022,43.94482844673328L1050.4323199032024,44.709738565822775L1052.9115513189026,36.72931125151226L1053.7379617908027,54.80413670201522L1055.390782734603,44.49290232923522L1058.6964246222033,48.47093927025851L1059.5228350941034,-6.522472926654143L1061.1756560379033,16.10790423596919L1062.0020665098034,62.24036102451062L1064.4812979255037,7.759366277030498L1066.1341188693038,28.70873727093568L1066.960529341204,-0.29989449103889687L1067.786939813104,76.59663192625885L1069.4397607569042,43.900213666645854L1070.2661712288043,43.17352582816674L1071.0925817007044,20.891573066107217L1071.9189921726045,-17.365169531045833L1073.5718131164044,88.58564303895544L1074.3982235883045,63.05977328447044L1075.2246340602046,52.97944307100259L1076.0510445321047,62.95716150220689L1076.8774550040048,45.97815202607744L1078.530275947805,4.856618530052949L1079.356686419705,21.848036975755512L1080.1830968916051,68.9759983714437L1081.835917835405,36.759349363241945L1082.6623283073052,38.563228662047194L1085.1415597230057,57.64205255983251L1086.7943806668056,49.582106091127194L1087.6207911387057,87.466911391716L1089.273612082506,60.67187611821428" fill="none"></path></g></g></g></g></g></g><g transform="translate(41, 376)" clip-path="url(#clip_1)"><clipPath id="clip_1"><rect width="1087" height="23"></rect></clipPath><g><g><line x1="1.7174310620098447" y1="0" x2="1.7174310620098447" y2="5" style="visibility: inherit;" fill="rgb(0, 0, 0)" stroke="rgb(204, 204, 204)" stroke-width="1px"></line><line x1="84.35847825201715" y1="0" x2="84.35847825201715" y2="5" style="visibility: inherit;" fill="rgb(0, 0, 0)" stroke="rgb(204, 204, 204)" stroke-width="1px"></line><line x1="166.99952544202444" y1="0" x2="166.99952544202444" y2="5" style="visibility: inherit;" fill="rgb(0, 0, 0)" stroke="rgb(204, 204, 204)" stroke-width="1px"></line><line x1="249.64057263203173" y1="0" x2="249.64057263203173" y2="5" style="visibility: inherit;" fill="rgb(0, 0, 0)" stroke="rgb(204, 204, 204)" stroke-width="1px"></line><line x1="332.28161982203903" y1="0" x2="332.28161982203903" y2="5" style="visibility: inherit;" fill="rgb(0, 0, 0)" stroke="rgb(204, 204, 204)" stroke-width="1px"></line><line x1="414.92266701204636" y1="0" x2="414.92266701204636" y2="5" style="visibility: inherit;" fill="rgb(0, 0, 0)" stroke="rgb(204, 204, 204)" stroke-width="1px"></line><line x1="497.56371420205363" y1="0" x2="497.56371420205363" y2="5" style="visibility: inherit;" fill="rgb(0, 0, 0)" stroke="rgb(204, 204, 204)" stroke-width="1px"></line><line x1="580.204761392061" y1="0" x2="580.204761392061" y2="5" style="visibility: inherit;" fill="rgb(0, 0, 0)" stroke="rgb(204, 204, 204)" stroke-width="1px"></line><line x1="662.8458085820682" y1="0" x2="662.8458085820682" y2="5" style="visibility: inherit;" fill="rgb(0, 0, 0)" stroke="rgb(204, 204, 204)" stroke-width="1px"></line><line x1="745.4868557720755" y1="0" x2="745.4868557720755" y2="5" style="visibility: inherit;" fill="rgb(0, 0, 0)" stroke="rgb(204, 204, 204)" stroke-width="1px"></line><line x1="828.1279029620828" y1="0" x2="828.1279029620828" y2="5" style="visibility: inherit;" fill="rgb(0, 0, 0)" stroke="rgb(204, 204, 204)" stroke-width="1px"></line><line x1="910.7689501520902" y1="0" x2="910.7689501520902" y2="5" style="visibility: inherit;" fill="rgb(0, 0, 0)" stroke="rgb(204, 204, 204)" stroke-width="1px"></line><line x1="993.4099973420974" y1="0" x2="993.4099973420974" y2="5" style="visibility: inherit;" fill="rgb(0, 0, 0)" stroke="rgb(204, 204, 204)" stroke-width="1px"></line><line x1="1076.0510445321047" y1="0" x2="1076.0510445321047" y2="5" style="visibility: inherit;" fill="rgb(0, 0, 0)" stroke="rgb(204, 204, 204)" stroke-width="1px"></line></g><g transform="translate(0, 8)"><text style="text-anchor: middle; visibility: hidden; font-family: Roboto, sans-serif; font-size: 12px; font-weight: 200;" x="1.7174310620098447" y="0" dx="0em" dy="0.95em" fill="rgb(255, 255, 255)" stroke="none" stroke-width="1px">0</text><text style="text-anchor: middle; visibility: inherit; font-family: Roboto, sans-serif; font-size: 12px; font-weight: 200;" x="84.35847825201715" y="0" dx="0em" dy="0.95em" fill="rgb(255, 255, 255)" stroke="none" stroke-width="1px">2k</text><text style="text-anchor: middle; visibility: inherit; font-family: Roboto, sans-serif; font-size: 12px; font-weight: 200;" x="166.99952544202444" y="0" dx="0em" dy="0.95em" fill="rgb(255, 255, 255)" stroke="none" stroke-width="1px">4k</text><text style="text-anchor: middle; visibility: inherit; font-family: Roboto, sans-serif; font-size: 12px; font-weight: 200;" x="249.64057263203173" y="0" dx="0em" dy="0.95em" fill="rgb(255, 255, 255)" stroke="none" stroke-width="1px">6k</text><text style="text-anchor: middle; visibility: inherit; font-family: Roboto, sans-serif; font-size: 12px; font-weight: 200;" x="332.28161982203903" y="0" dx="0em" dy="0.95em" fill="rgb(255, 255, 255)" stroke="none" stroke-width="1px">8k</text><text style="text-anchor: middle; visibility: inherit; font-family: Roboto, sans-serif; font-size: 12px; font-weight: 200;" x="414.92266701204636" y="0" dx="0em" dy="0.95em" fill="rgb(255, 255, 255)" stroke="none" stroke-width="1px">10k</text><text style="text-anchor: middle; visibility: inherit; font-family: Roboto, sans-serif; font-size: 12px; font-weight: 200;" x="497.56371420205363" y="0" dx="0em" dy="0.95em" fill="rgb(255, 255, 255)" stroke="none" stroke-width="1px">12k</text><text style="text-anchor: middle; visibility: inherit; font-family: Roboto, sans-serif; font-size: 12px; font-weight: 200;" x="580.204761392061" y="0" dx="0em" dy="0.95em" fill="rgb(255, 255, 255)" stroke="none" stroke-width="1px">14k</text><text style="text-anchor: middle; visibility: inherit; font-family: Roboto, sans-serif; font-size: 12px; font-weight: 200;" x="662.8458085820682" y="0" dx="0em" dy="0.95em" fill="rgb(255, 255, 255)" stroke="none" stroke-width="1px">16k</text><text style="text-anchor: middle; visibility: inherit; font-family: Roboto, sans-serif; font-size: 12px; font-weight: 200;" x="745.4868557720755" y="0" dx="0em" dy="0.95em" fill="rgb(255, 255, 255)" stroke="none" stroke-width="1px">18k</text><text style="text-anchor: middle; visibility: inherit; font-family: Roboto, sans-serif; font-size: 12px; font-weight: 200;" x="828.1279029620828" y="0" dx="0em" dy="0.95em" fill="rgb(255, 255, 255)" stroke="none" stroke-width="1px">20k</text><text style="text-anchor: middle; visibility: inherit; font-family: Roboto, sans-serif; font-size: 12px; font-weight: 200;" x="910.7689501520902" y="0" dx="0em" dy="0.95em" fill="rgb(255, 255, 255)" stroke="none" stroke-width="1px">22k</text><text style="text-anchor: middle; visibility: inherit; font-family: Roboto, sans-serif; font-size: 12px; font-weight: 200;" x="993.4099973420974" y="0" dx="0em" dy="0.95em" fill="rgb(255, 255, 255)" stroke="none" stroke-width="1px">24k</text><text style="text-anchor: middle; visibility: inherit; font-family: Roboto, sans-serif; font-size: 12px; font-weight: 200;" x="1076.0510445321047" y="0" dx="0em" dy="0.95em" fill="rgb(255, 255, 255)" stroke="none" stroke-width="1px">26k</text></g><line x1="0" y1="0" x2="1087.850998878479" y2="0" fill="rgb(0, 0, 0)" stroke="rgb(204, 204, 204)" stroke-width="1px"></line></g></g></g></g></svg>